<svg xmlns="http://www.w3.org/2000/svg" version="1.1" x="0" y="0" width="100" height="80">
<path d="m7.12 17.28c-1.17 0.83-2.36 1.63-3.5 2.53l5.19 6.63c1.05-0.84 2.11-1.43 3.16-2.19l-4.85-6.97z" fill="#FDFBF9"/>
<path d="m10.38 15.12c-1.28 0.8-2.53 1.63-3.76 2.5l4.94 6.94c1.1-0.8 2.18-1.56 3.28-2.28l-4.46-7.16z" fill="#FDFBF9"/>
<path d="m13.75 13.12c-1.32 0.72-2.6 1.51-3.87 2.32l4.56 7.15c1.1-0.73 2.17-1.63 3.28-2.28l-3.97-7.19z" fill="#FCF6EF"/>
<path d="m17.25 11.38c-1.35 0.64-2.69 1.3-4 2.03l4.06 7.21c1.17-0.69 2.35-1.26 3.53-1.87l-3.59-7.37z" fill="#FDF1E5"/>
<path d="m20.81 9.75c-1.39 0.57-2.74 1.22-4.09 1.87l3.66 7.35c1.18-0.63 2.41-1.12 3.62-1.66l-3.19-7.56z" fill="#FDECDA"/>
<path d="m24.5 8.38c-1.41 0.49-2.84 1.01-4.22 1.59l3.28 7.53c1.22-0.55 2.42-1.19 3.66-1.66l-2.72-7.46z" fill="#FCE5CE"/>
<path d="m28.22 7.19c-1.43 0.42-2.85 0.87-4.25 1.37l2.75 7.5c1.24-0.48 2.54-0.85 3.81-1.25l-2.31-7.62z" fill="#FDE0C3"/>
<path d="m31.97 6.12c-1.45 0.35-2.86 0.79-4.28 1.22l2.37 7.57c1.25-0.4 2.56-0.66 3.85-0.97l-1.94-7.82z" fill="#FDDCB7"/>
<path d="m35.81 5.34c-1.47 0.28-2.95 0.55-4.4 0.91l2.03 7.81c1.28-0.32 2.55-0.72 3.87-0.97l-1.5-7.75z" fill="#FDD8AE"/>
<path d="m39.69 4.84c-1.49 0.2-2.97 0.34-4.44 0.63l1.56 7.75c1.3-0.25 2.64-0.45 3.97-0.63l-1.09-7.75z" fill="#FCD1A1"/>
<path d="m43.56 4.53c-1.48 0.12-2.96 0.14-4.44 0.35l1.13 7.74c1.29-0.17 2.67-0.2 4-0.31l-0.69-7.78z" fill="#FDCB95"/>
<path d="m47.47 4.19c-1.49 0.05-2.96 0.24-4.44 0.37l0.72 7.78c1.33-0.11 2.63-0.24 4-0.28l-0.28-7.87z" fill="#FEC78C"/>
<path d="m50 4c-1.04 0-2.06 0.21-3.09 0.25l0.31 7.84c0.95-0.03 1.81-0.21 2.78-0.21 0.43 0 0.8 0.08 1.22 0.09l0.16-7.85c-0.47 0-0.92-0.12-1.38-0.12z" fill="#FDC07D"/>
<path d="m50.81 4.06l-0.09 7.88c1.39 0.01 2.65 0.23 4 0.31l0.56-7.81c-1.49-0.1-2.97-0.36-4.47-0.38z" fill="#FCB272"/>
<path d="m54.69 4.38l-0.47 7.81c1.34 0.07 2.67 0.16 3.97 0.31l0.97-7.75c-1.49-0.18-2.98-0.28-4.47-0.37z" fill="#FDA569"/>
<path d="m58.59 4.69l-0.9 7.78c1.32 0.14 2.72 0.16 4 0.37l1.37-7.72c-1.48-0.25-2.98-0.27-4.47-0.43z" fill="#F98F5A"/>
<path d="m62.5 5.03l-1.31 7.72c1.33 0.21 2.58 0.64 3.87 0.94l1.82-7.78c-1.46-0.33-2.91-0.64-4.38-0.88z" fill="#F97E4E"/>
<path d="m66.31 5.78l-1.72 7.78c1.31 0.29 2.61 0.6 3.88 0.97l2.22-7.69c-1.45-0.4-2.91-0.74-4.38-1.06z" fill="#F87045"/>
<path d="m70.12 6.69l-2.15 7.72c1.28 0.35 2.63 0.55 3.87 1 0.01 0 0.03-0.01 0.04 0l2.56-7.44c-1.43-0.48-2.87-0.89-4.32-1.28z" fill="#F75C37"/>
<path d="m73.88 7.81l-2.5 7.47c1.25 0.44 2.45 1.07 3.68 1.6l3.03-7.54c-1.39-0.54-2.8-1.06-4.21-1.53z" fill="#F64F2E"/>
<path d="m77.56 9.12l-3 7.54c1.24 0.51 2.45 1.09 3.66 1.68l3.5-7.46c-1.37-0.63-2.76-1.21-4.16-1.76z" fill="#F53F24"/>
<path d="m81.19 10.62l-3.44 7.5c1.21 0.59 2.47 0.99 3.66 1.66l3.84-7.19c-1.34-0.7-2.69-1.35-4.06-1.97z" fill="#F42B16"/>
<path d="m84.72 12.34l-3.78 7.25c1.13 0.63 2.25 1.42 3.37 2.13l4.31-7.19c-1.28-0.77-2.57-1.5-3.9-2.19z" fill="#F3210E"/>
<path d="m88.12 14.25l-4.24 7.19c1.1 0.69 2.21 1.48 3.31 2.25l4.78-7.07c-1.25-0.84-2.55-1.61-3.85-2.37z" fill="#F31104"/>
<path d="m91.5 16.28l-4.75 7.13c1.09 0.75 2.19 1.41 3.28 2.25l5.09-6.75c-1.19-0.91-2.38-1.8-3.62-2.63z" fill="#F10B04"/>
<path d="m94.69 18.59l-5.07 6.79c0.52 0.39 1.05 0.65 1.57 1.06l5.19-6.63c-0.55-0.43-1.14-0.8-1.69-1.22z" fill="#F10B04"/>
<path stroke-linejoin="round" d="m50 4c-16.62 0-33.21 5.3-46.39 15.82l5.2 6.63c12.53-10 25.28-14.59 41.19-14.59s28.66 4.59 41.19 14.59l5.2-6.63c-13.18-10.52-29.77-15.82-46.39-15.82zm0 0" stroke="#999" stroke-linecap="round" stroke-width=".6" fill="none"/>
</svg>
